# https://github.com/mikedh/trimesh
mtllib material.mtl

o geometry_45178561_d814_4e10_83a9_18077fb16ba7
v 36.44475174 19.42858696 -157.27999878
v -34.54910660 22.62850189 -157.27999878
v -32.37327576 25.64490318 -157.27999878
v -29.93490028 28.45332527 -157.27999878
v -27.25375748 31.03099632 -157.27999878
v -24.35158920 33.35700989 -157.27999878
v -21.25193214 35.41250229 -157.27999878
v -17.97992706 37.18080521 -157.27999878
v -14.56210613 38.64757538 -157.27999878
v -11.02618790 39.80091858 -157.27999878
v -7.40084934 40.63148499 -157.27999878
v -3.71549082 41.13253021 -157.27999878
v -0.00000000 41.29999924 -157.27999878
v 3.71549082 41.13253021 -157.27999878
v 7.40084934 40.63148499 -157.27999878
v 11.02618790 39.80091858 -157.27999878
v 14.56210613 38.64757538 -157.27999878
v 17.97992706 37.18080521 -157.27999878
v 21.25193214 35.41250229 -157.27999878
v 34.54910660 22.62850189 -157.27999878
v 24.35158920 33.35700989 -157.27999878
v 32.37327576 25.64490318 -157.27999878
v 27.25375748 31.03099632 -157.27999878
v 29.93490028 28.45332527 -157.27999878
v -36.83840942 -18.67141151 -157.27999878
v 36.83840942 -18.67141151 -157.27999878
v -35.05195236 -21.84148979 -157.27999878
v -32.99339294 -24.84201813 -157.27999878
v -30.67871857 -27.64970589 -157.27999878
v -28.12589264 -30.24275398 -157.27999878
v -25.35473061 -32.60103607 -157.27999878
v -22.38674927 -34.70624542 -157.27999878
v -19.24498367 -36.54203796 -157.27999878
v -15.95382404 -38.09416580 -157.27999878
v -12.53881931 -39.35057831 -157.27999878
v -9.02647877 -40.30152130 -157.27999878
v -5.44406843 -40.93961716 -157.27999878
v -1.81939733 -41.25990677 -157.27999878
v 1.81939733 -41.25990677 -157.27999878
v 5.44406843 -40.93961716 -157.27999878
v 9.02647877 -40.30152130 -157.27999878
v 12.53881931 -39.35057831 -157.27999878
v 15.95382404 -38.09416580 -157.27999878
v 19.24498367 -36.54203796 -157.27999878
v 22.38674927 -34.70624542 -157.27999878
v 25.35473061 -32.60103607 -157.27999878
v 28.12589264 -30.24275398 -157.27999878
v 30.67871857 -27.64970589 -157.27999878
v 32.99339294 -24.84201813 -157.27999878
v 35.05195236 -21.84148979 -157.27999878
v 36.44475174 19.42858696 -157.27999878
v 37.99784088 16.18190765 -157.27999878
v 53.96942139 19.42858696 -157.27999878
v 39.26237106 12.81234169 -157.27999878
v 40.22874451 9.34547901 -157.27999878
v 40.88962173 5.80764627 -157.27999878
v 41.23998260 2.22571039 -157.27999878
v 41.27716827 -1.37312734 -157.27999878
v 53.96942139 -18.67141151 -157.27999878
v 41.00089264 -4.96153784 -157.27999878
v 40.41325760 -8.51226997 -157.27999878
v 39.51872253 -11.99835968 -157.27999878
v 38.32408142 -15.39333439 -157.27999878
v 36.83840942 -18.67141151 -157.27999878
v -36.83840942 -18.67141151 -157.27999878
v -38.32408142 -15.39333439 -157.27999878
v -54.03057861 -18.67141151 -157.27999878
v -39.51872253 -11.99835968 -157.27999878
v -40.41325760 -8.51226997 -157.27999878
v -41.00089264 -4.96153784 -157.27999878
v -41.27716827 -1.37312734 -157.27999878
v -54.03057861 19.42858696 -157.27999878
v -41.23998260 2.22571039 -157.27999878
v -40.88962173 5.80764627 -157.27999878
v -40.22874451 9.34547901 -157.27999878
v -39.26237106 12.81234169 -157.27999878
v -37.99784088 16.18190765 -157.27999878
v -36.44475174 19.42858696 -157.27999878
v 2.04566526 12.73929501 -257.27999878
v 8.58054924 12.73929501 -324.28497314
v 2.04566526 12.73929501 -331.49270630
v 3.89137101 12.73929501 -332.02636719
v 3.72731733 12.73929501 -332.22439575
v 35.34481049 12.73929501 -257.27999878
v 33.08807755 12.73929501 -266.04495239
v 30.51232529 12.73929501 -274.72152710
v 27.62099648 12.73929501 -283.29812622
v 24.41795731 12.73929501 -291.76321411
v 20.90749550 12.73929501 -300.10552979
v 17.09430695 12.73929501 -308.31387329
v 12.98349190 12.73929501 -316.37728882
v 3.51818705 12.73929501 -332.37402344
v 3.27780962 12.73929501 -332.46539307
v 3.02208090 12.73929501 -332.49243164
v 2.76791167 12.73929501 -332.45336914
v 2.53210998 12.73929501 -332.35076904
v 2.33026862 12.73929501 -332.19143677
v 2.17573571 12.73929501 -331.98590088
v 2.07872939 12.73929501 -331.74774170
v 2.04566526 -13.06070423 -331.49270630
v 8.58054924 -13.06070423 -324.28497314
v 2.04566526 -13.06070423 -257.27999878
v 12.98349190 -13.06070423 -316.37728882
v 17.09430695 -13.06070423 -308.31387329
v 2.07872939 -13.06070423 -331.74774170
v 2.17573571 -13.06070423 -331.98590088
v 2.33026862 -13.06070423 -332.19143677
v 2.53210998 -13.06070423 -332.35076904
v 2.76791167 -13.06070423 -332.45336914
v 3.02208090 -13.06070423 -332.49243164
v 3.27780962 -13.06070423 -332.46539307
v 3.51818705 -13.06070423 -332.37402344
v 3.72731733 -13.06070423 -332.22439575
v 3.89137101 -13.06070423 -332.02636719
v 20.90749550 -13.06070423 -300.10552979
v 24.41795731 -13.06070423 -291.76321411
v 27.62099648 -13.06070423 -283.29812622
v 30.51232529 -13.06070423 -274.72152710
v 33.08807755 -13.06070423 -266.04495239
v 35.34481049 -13.06070423 -257.27999878
v -2.36340094 -13.06070423 -257.27999878
v -8.89828491 -13.06070423 -324.28497314
v -2.36340094 -13.06070423 -331.49270630
v -4.20910692 -13.06070423 -332.02636719
v -4.04505301 -13.06070423 -332.22439575
v -35.66254425 -13.06070423 -257.27999878
v -33.40581512 -13.06070423 -266.04495239
v -30.83006096 -13.06070423 -274.72152710
v -27.93873215 -13.06070423 -283.29812622
v -24.73569298 -13.06070423 -291.76321411
v -21.22523117 -13.06070423 -300.10552979
v -17.41204262 -13.06070423 -308.31387329
v -13.30122662 -13.06070423 -316.37728882
v -3.83592248 -13.06070423 -332.37402344
v -3.59554505 -13.06070423 -332.46539307
v -3.33981633 -13.06070423 -332.49243164
v -3.08564711 -13.06070423 -332.45336914
v -2.84984541 -13.06070423 -332.35076904
v -2.64800429 -13.06070423 -332.19143677
v -2.49347115 -13.06070423 -331.98590088
v -2.39646506 -13.06070423 -331.74774170
v 35.34481049 -13.06070423 -257.27999878
v 35.42131042 -13.06070423 -256.95770264
v 36.03332901 -13.06070423 -257.27999878
v 35.49737930 -13.06070423 -256.63528442
v 35.57301712 -13.06070423 -256.31277466
v 35.68241501 -13.06070423 -255.94999695
v 35.83667374 -13.06070423 -255.60389709
v 36.03332901 -13.06070423 -255.27999878
v 36.03332901 12.73929501 -255.27999878
v 35.83667374 12.73929501 -255.60389709
v 36.03332901 12.73929501 -257.27999878
v 35.68241501 12.73929501 -255.94999695
v 35.57301712 12.73929501 -256.31277466
v 35.49737930 12.73929501 -256.63528442
v 35.42131042 12.73929501 -256.95770264
v 35.34481049 12.73929501 -257.27999878
v -35.66254425 12.73929501 -257.27999878
v -35.73904419 12.73929501 -256.95770264
v -36.35106659 12.73929501 -257.27999878
v -35.81511307 12.73929501 -256.63528442
v -35.89075089 12.73929501 -256.31277466
v -36.00015259 12.73929501 -255.94999695
v -36.15441132 12.73929501 -255.60389709
v -36.35106659 12.73929501 -255.27999878
v 36.03332901 -13.06070423 -255.27999878
v 36.03332901 12.73929501 -255.27999878
v 36.03332901 -13.06070423 -257.27999878
v 36.03332901 12.73929501 -257.27999878
v -36.00015259 -13.06070423 -255.94999695
v -35.89075089 -13.06070423 -256.31277466
v -36.35106659 -13.06070423 -257.27999878
v -35.81511307 -13.06070423 -256.63528442
v -35.73904419 -13.06070423 -256.95770264
v -35.66254425 -13.06070423 -257.27999878
v -36.35106659 -13.06070423 -255.27999878
v -36.15441132 -13.06070423 -255.60389709
v -36.35106659 12.73929501 -255.27999878
v -36.35106659 -13.06070423 -255.27999878
v -36.35106659 12.73929501 -257.27999878
v -36.35106659 -13.06070423 -257.27999878
v -35.66254425 12.73929501 -257.27999878
v -54.03057861 19.42858696 -257.27999878
v -2.36340094 12.73929501 -257.27999878
v 2.04566526 12.73929501 -257.27999878
v -2.36340094 -13.06070423 -257.27999878
v 2.04566526 -13.06070423 -257.27999878
v -54.03057861 -18.67141151 -257.27999878
v 53.96942139 -18.67141151 -257.27999878
v 35.34481049 -13.06070423 -257.27999878
v 36.03332901 -13.06070423 -257.27999878
v -36.35106659 12.73929501 -257.27999878
v -36.35106659 -13.06070423 -257.27999878
v -35.66254425 -13.06070423 -257.27999878
v 35.34481049 12.73929501 -257.27999878
v 53.96942139 19.42858696 -257.27999878
v 36.03332901 12.73929501 -257.27999878
v -2.36340094 12.73929501 -331.49270630
v -8.89828491 12.73929501 -324.28497314
v -2.36340094 12.73929501 -257.27999878
v -13.30122662 12.73929501 -316.37728882
v -17.41204262 12.73929501 -308.31387329
v -2.39646506 12.73929501 -331.74774170
v -2.49347115 12.73929501 -331.98590088
v -2.64800429 12.73929501 -332.19143677
v -2.84984541 12.73929501 -332.35076904
v -3.08564711 12.73929501 -332.45336914
v -3.33981633 12.73929501 -332.49243164
v -3.59554505 12.73929501 -332.46539307
v -3.83592248 12.73929501 -332.37402344
v -4.04505301 12.73929501 -332.22439575
v -4.20910692 12.73929501 -332.02636719
v -21.22523117 12.73929501 -300.10552979
v -24.73569298 12.73929501 -291.76321411
v -27.93873215 12.73929501 -283.29812622
v -30.83006096 12.73929501 -274.72152710
v -33.40581512 12.73929501 -266.04495239
v -35.66254425 12.73929501 -257.27999878
v -54.03057861 -18.67141151 -257.27999878
v -54.03057861 -18.67141151 -157.27999878
v -54.03057861 19.42858696 -257.27999878
v -54.03057861 19.42858696 -157.27999878
v 53.96942139 -18.67141151 -157.27999878
v 53.96942139 -18.67141151 -257.27999878
v 53.96942139 19.42858696 -157.27999878
v 53.96942139 19.42858696 -257.27999878
v -54.03057861 19.42858696 -157.27999878
v -36.44475174 19.42858696 -157.27999878
v -54.03057861 19.42858696 -257.27999878
v 53.96942139 19.42858696 -257.27999878
v 36.44475174 19.42858696 -157.27999878
v 53.96942139 19.42858696 -157.27999878
v -54.03057861 -18.67141151 -157.27999878
v -54.03057861 -18.67141151 -257.27999878
v -36.83840942 -18.67141151 -157.27999878
v 53.96942139 -18.67141151 -257.27999878
v 36.83840942 -18.67141151 -157.27999878
v 53.96942139 -18.67141151 -157.27999878
v -36.35106659 -13.06070423 -255.27999878
v -36.35106659 12.73929501 -255.27999878
v -36.15441132 -13.06070423 -255.60389709
v -36.15441132 -13.06070423 -255.60389709
v -36.35106659 12.73929501 -255.27999878
v -36.07181168 -4.46070480 -255.77450562
v -36.15441132 -13.06070423 -255.60389709
v -36.07181168 -4.46070480 -255.77450562
v -36.00015259 -13.06070423 -255.94999695
v -36.00015259 -13.06070423 -255.94999695
v -36.07181168 -4.46070480 -255.77450562
v -35.89075089 -13.06070423 -256.31277466
v -35.89075089 -13.06070423 -256.31277466
v -36.07181168 -4.46070480 -255.77450562
v -36.07181168 4.13929558 -255.77450562
v -35.89075089 -13.06070423 -256.31277466
v -36.07181168 4.13929558 -255.77450562
v -36.00015259 12.73929501 -255.94999695
v -36.00015259 12.73929501 -255.94999695
v -36.07181168 4.13929558 -255.77450562
v -36.15441132 12.73929501 -255.60389709
v -36.15441132 12.73929501 -255.60389709
v -36.07181168 4.13929558 -255.77450562
v -36.35106659 12.73929501 -255.27999878
v -36.07181168 4.13929558 -255.77450562
v -36.07181168 -4.46070480 -255.77450562
v -36.00015259 12.73929501 -255.94999695
v -35.89075089 12.73929501 -256.31277466
v -2.36340094 -13.06070423 -257.27999878
v -2.36340094 -13.06070423 -331.49270630
v -2.36340094 12.73929501 -257.27999878
v -2.36340094 12.73929501 -331.49270630
v -35.73904419 12.73929501 -256.95770264
v -35.66254425 12.73929501 -257.27999878
v -35.66254425 -13.06070423 -257.27999878
v -35.66254425 -13.06070423 -257.27999878
v -35.66254425 12.73929501 -257.27999878
v -33.40581512 12.73929501 -266.04495239
v -33.40581512 -13.06070423 -266.04495239
v -33.40581512 -13.06070423 -266.04495239
v -33.40581512 12.73929501 -266.04495239
v -30.83006096 12.73929501 -274.72152710
v -30.83006096 -13.06070423 -274.72152710
v -30.83006096 -13.06070423 -274.72152710
v -30.83006096 12.73929501 -274.72152710
v -27.93873215 12.73929501 -283.29812622
v -27.93873215 -13.06070423 -283.29812622
v -27.93873215 -13.06070423 -283.29812622
v -27.93873215 12.73929501 -283.29812622
v -24.73569298 12.73929501 -291.76321411
v -24.73569298 -13.06070423 -291.76321411
v -24.73569298 -13.06070423 -291.76321411
v -24.73569298 12.73929501 -291.76321411
v -21.22523117 12.73929501 -300.10552979
v -21.22523117 -13.06070423 -300.10552979
v -21.22523117 -13.06070423 -300.10552979
v -21.22523117 12.73929501 -300.10552979
v -17.41204262 12.73929501 -308.31387329
v -17.41204262 -13.06070423 -308.31387329
v -17.41204262 -13.06070423 -308.31387329
v -17.41204262 12.73929501 -308.31387329
v -13.30122662 12.73929501 -316.37728882
v -13.30122662 -13.06070423 -316.37728882
v -13.30122662 -13.06070423 -316.37728882
v -13.30122662 12.73929501 -316.37728882
v -8.89828491 12.73929501 -324.28497314
v -8.89828491 -13.06070423 -324.28497314
v -8.89828491 -13.06070423 -324.28497314
v -8.89828491 12.73929501 -324.28497314
v -4.20910692 -13.06070423 -332.02636719
v -4.20910692 12.73929501 -332.02636719
v -35.73904419 -13.06070423 -256.95770264
v -35.81511307 12.73929501 -256.63528442
v -35.81511307 -13.06070423 -256.63528442
v -35.89075089 12.73929501 -256.31277466
v -35.89075089 -13.06070423 -256.31277466
v 2.04566526 12.73929501 -257.27999878
v 2.04566526 12.73929501 -331.49270630
v 2.04566526 -13.06070423 -257.27999878
v 2.04566526 -13.06070423 -331.49270630
v 35.42131042 -13.06070423 -256.95770264
v 35.34481049 -13.06070423 -257.27999878
v 35.34481049 12.73929501 -257.27999878
v 35.34481049 12.73929501 -257.27999878
v 35.34481049 -13.06070423 -257.27999878
v 33.08807755 -13.06070423 -266.04495239
v 33.08807755 12.73929501 -266.04495239
v 33.08807755 12.73929501 -266.04495239
v 33.08807755 -13.06070423 -266.04495239
v 30.51232529 -13.06070423 -274.72152710
v 30.51232529 12.73929501 -274.72152710
v 30.51232529 12.73929501 -274.72152710
v 30.51232529 -13.06070423 -274.72152710
v 27.62099648 -13.06070423 -283.29812622
v 27.62099648 12.73929501 -283.29812622
v 27.62099648 12.73929501 -283.29812622
v 27.62099648 -13.06070423 -283.29812622
v 24.41795731 -13.06070423 -291.76321411
v 24.41795731 12.73929501 -291.76321411
v 24.41795731 12.73929501 -291.76321411
v 24.41795731 -13.06070423 -291.76321411
v 20.90749550 -13.06070423 -300.10552979
v 20.90749550 12.73929501 -300.10552979
v 20.90749550 12.73929501 -300.10552979
v 20.90749550 -13.06070423 -300.10552979
v 17.09430695 -13.06070423 -308.31387329
v 17.09430695 12.73929501 -308.31387329
v 17.09430695 12.73929501 -308.31387329
v 17.09430695 -13.06070423 -308.31387329
v 12.98349190 -13.06070423 -316.37728882
v 12.98349190 12.73929501 -316.37728882
v 12.98349190 12.73929501 -316.37728882
v 12.98349190 -13.06070423 -316.37728882
v 8.58054924 -13.06070423 -324.28497314
v 8.58054924 12.73929501 -324.28497314
v 8.58054924 12.73929501 -324.28497314
v 8.58054924 -13.06070423 -324.28497314
v 3.89137101 12.73929501 -332.02636719
v 3.89137101 -13.06070423 -332.02636719
v 35.42131042 12.73929501 -256.95770264
v 35.49737930 -13.06070423 -256.63528442
v 35.49737930 12.73929501 -256.63528442
v 35.57301712 -13.06070423 -256.31277466
v 35.57301712 12.73929501 -256.31277466
v 3.72731733 -13.06070423 -332.22439575
v 3.72731733 -7.90070438 -332.22439575
v 3.89137101 -13.06070423 -332.02636719
v 3.72731733 -2.74070454 -332.22439575
v 3.72731733 2.41929531 -332.22439575
v 3.72731733 2.41929531 -332.22439575
v 3.72731733 -2.74070454 -332.22439575
v 3.51818705 2.41929531 -332.37402344
v 3.51818705 7.57929564 -332.37402344
v 3.51818705 7.57929564 -332.37402344
v 3.51818705 2.41929531 -332.37402344
v 3.27780962 7.57929564 -332.46539307
v 3.27780962 12.73929501 -332.46539307
v 3.27780962 12.73929501 -332.46539307
v 3.27780962 7.57929564 -332.46539307
v 3.02208090 12.73929501 -332.49243164
v 3.02208090 7.57929564 -332.49243164
v 3.02208090 12.73929501 -332.49243164
v 3.02208090 7.57929564 -332.49243164
v 2.76791167 12.73929501 -332.45336914
v 2.76791167 7.57929564 -332.45336914
v 2.76791167 12.73929501 -332.45336914
v 2.76791167 7.57929564 -332.45336914
v 2.53210998 12.73929501 -332.35076904
v 2.53210998 7.57929564 -332.35076904
v 2.53210998 12.73929501 -332.35076904
v 2.53210998 7.57929564 -332.35076904
v 2.33026862 12.73929501 -332.19143677
v 2.33026862 7.57929564 -332.19143677
v 2.33026862 12.73929501 -332.19143677
v 2.33026862 7.57929564 -332.19143677
v 2.17573571 12.73929501 -331.98590088
v 2.17573571 7.57929564 -331.98590088
v 2.17573571 12.73929501 -331.98590088
v 2.17573571 7.57929564 -331.98590088
v 2.07872939 12.73929501 -331.74774170
v 2.07872939 7.57929564 -331.74774170
v 2.07872939 12.73929501 -331.74774170
v 2.07872939 7.57929564 -331.74774170
v 2.04566526 12.73929501 -331.49270630
v 2.07872939 2.41929531 -331.74774170
v 2.07872939 -2.74070454 -331.74774170
v 2.07872939 -2.74070454 -331.74774170
v 2.07872939 2.41929531 -331.74774170
v 2.17573571 -2.74070454 -331.98590088
v 2.17573571 -7.90070438 -331.98590088
v 2.17573571 -7.90070438 -331.98590088
v 2.17573571 -2.74070454 -331.98590088
v 2.33026862 -7.90070438 -332.19143677
v 2.33026862 -13.06070423 -332.19143677
v 2.33026862 -13.06070423 -332.19143677
v 2.33026862 -7.90070438 -332.19143677
v 2.53210998 -13.06070423 -332.35076904
v 2.53210998 -7.90070438 -332.35076904
v 2.53210998 -13.06070423 -332.35076904
v 2.53210998 -7.90070438 -332.35076904
v 2.76791167 -13.06070423 -332.45336914
v 2.76791167 -7.90070438 -332.45336914
v 2.76791167 -13.06070423 -332.45336914
v 2.76791167 -7.90070438 -332.45336914
v 3.02208090 -13.06070423 -332.49243164
v 3.02208090 -7.90070438 -332.49243164
v 3.02208090 -13.06070423 -332.49243164
v 3.02208090 -7.90070438 -332.49243164
v 3.27780962 -13.06070423 -332.46539307
v 3.27780962 -7.90070438 -332.46539307
v 3.27780962 -13.06070423 -332.46539307
v 3.27780962 -7.90070438 -332.46539307
v 3.51818705 -13.06070423 -332.37402344
v 3.51818705 -7.90070438 -332.37402344
v 3.51818705 -13.06070423 -332.37402344
v 3.51818705 -7.90070438 -332.37402344
v 3.72731733 -13.06070423 -332.22439575
v 3.72731733 -7.90070438 -332.22439575
v 2.17573571 -13.06070423 -331.98590088
v 2.17573571 -13.06070423 -331.98590088
v 2.07872939 -7.90070438 -331.74774170
v 2.07872939 -7.90070438 -331.74774170
v 2.04566526 -13.06070423 -331.49270630
v 2.07872939 -13.06070423 -331.74774170
v 2.07872939 -13.06070423 -331.74774170
v 3.51818705 12.73929501 -332.37402344
v 3.51818705 12.73929501 -332.37402344
v 3.72731733 7.57929564 -332.22439575
v 3.72731733 7.57929564 -332.22439575
v 3.89137101 12.73929501 -332.02636719
v 3.72731733 12.73929501 -332.22439575
v 3.72731733 12.73929501 -332.22439575
v 3.51818705 -2.74070454 -332.37402344
v 3.51818705 -2.74070454 -332.37402344
v 3.27780962 -2.74070454 -332.46539307
v 3.27780962 -2.74070454 -332.46539307
v 3.02208090 -2.74070454 -332.49243164
v 3.02208090 -2.74070454 -332.49243164
v 2.76791167 -2.74070454 -332.45336914
v 2.76791167 -2.74070454 -332.45336914
v 2.53210998 -2.74070454 -332.35076904
v 2.53210998 -2.74070454 -332.35076904
v 2.33026862 -2.74070454 -332.19143677
v 2.33026862 -2.74070454 -332.19143677
v 3.27780962 2.41929531 -332.46539307
v 3.27780962 2.41929531 -332.46539307
v 3.02208090 2.41929531 -332.49243164
v 3.02208090 2.41929531 -332.49243164
v 2.76791167 2.41929531 -332.45336914
v 2.76791167 2.41929531 -332.45336914
v 2.53210998 2.41929531 -332.35076904
v 2.53210998 2.41929531 -332.35076904
v 2.33026862 2.41929531 -332.19143677
v 2.33026862 2.41929531 -332.19143677
v 2.17573571 2.41929531 -331.98590088
v 2.17573571 2.41929531 -331.98590088
v 36.03332901 12.73929501 -255.27999878
v 36.03332901 -13.06070423 -255.27999878
v 35.83667374 12.73929501 -255.60389709
v 35.83667374 12.73929501 -255.60389709
v 36.03332901 -13.06070423 -255.27999878
v 35.75407791 4.13929558 -255.77450562
v 35.83667374 12.73929501 -255.60389709
v 35.75407791 4.13929558 -255.77450562
v 35.68241501 12.73929501 -255.94999695
v 35.68241501 12.73929501 -255.94999695
v 35.75407791 4.13929558 -255.77450562
v 35.57301712 12.73929501 -256.31277466
v 35.57301712 12.73929501 -256.31277466
v 35.75407791 4.13929558 -255.77450562
v 35.75407791 -4.46070480 -255.77450562
v 35.57301712 12.73929501 -256.31277466
v 35.75407791 -4.46070480 -255.77450562
v 35.68241501 -13.06070423 -255.94999695
v 35.68241501 -13.06070423 -255.94999695
v 35.75407791 -4.46070480 -255.77450562
v 35.83667374 -13.06070423 -255.60389709
v 35.83667374 -13.06070423 -255.60389709
v 35.75407791 -4.46070480 -255.77450562
v 36.03332901 -13.06070423 -255.27999878
v 35.75407791 -4.46070480 -255.77450562
v 35.75407791 4.13929558 -255.77450562
v 35.68241501 -13.06070423 -255.94999695
v 35.57301712 -13.06070423 -256.31277466
v -4.04505301 12.73929501 -332.22439575
v -4.04505301 7.57929564 -332.22439575
v -4.20910692 12.73929501 -332.02636719
v -4.04505301 2.41929531 -332.22439575
v -4.04505301 -2.74070454 -332.22439575
v -4.04505301 -2.74070454 -332.22439575
v -4.04505301 2.41929531 -332.22439575
v -3.83592248 -2.74070454 -332.37402344
v -3.83592248 -7.90070438 -332.37402344
v -3.83592248 -7.90070438 -332.37402344
v -3.83592248 -2.74070454 -332.37402344
v -3.59554505 -7.90070438 -332.46539307
v -3.59554505 -13.06070423 -332.46539307
v -3.59554505 -13.06070423 -332.46539307
v -3.59554505 -7.90070438 -332.46539307
v -3.33981633 -13.06070423 -332.49243164
v -3.33981633 -7.90070438 -332.49243164
v -3.33981633 -13.06070423 -332.49243164
v -3.33981633 -7.90070438 -332.49243164
v -3.08564711 -13.06070423 -332.45336914
v -3.08564711 -7.90070438 -332.45336914
v -3.08564711 -13.06070423 -332.45336914
v -3.08564711 -7.90070438 -332.45336914
v -2.84984541 -13.06070423 -332.35076904
v -2.84984541 -7.90070438 -332.35076904
v -2.84984541 -13.06070423 -332.35076904
v -2.84984541 -7.90070438 -332.35076904
v -2.64800429 -13.06070423 -332.19143677
v -2.64800429 -7.90070438 -332.19143677
v -2.64800429 -13.06070423 -332.19143677
v -2.64800429 -7.90070438 -332.19143677
v -2.49347115 -13.06070423 -331.98590088
v -2.49347115 -7.90070438 -331.98590088
v -2.49347115 -13.06070423 -331.98590088
v -2.49347115 -7.90070438 -331.98590088
v -2.39646506 -13.06070423 -331.74774170
v -2.39646506 -7.90070438 -331.74774170
v -2.39646506 -13.06070423 -331.74774170
v -2.39646506 -7.90070438 -331.74774170
v -2.36340094 -13.06070423 -331.49270630
v -2.39646506 -2.74070454 -331.74774170
v -2.39646506 2.41929531 -331.74774170
v -2.39646506 2.41929531 -331.74774170
v -2.39646506 -2.74070454 -331.74774170
v -2.49347115 2.41929531 -331.98590088
v -2.49347115 7.57929564 -331.98590088
v -2.49347115 7.57929564 -331.98590088
v -2.49347115 2.41929531 -331.98590088
v -2.64800429 7.57929564 -332.19143677
v -2.64800429 12.73929501 -332.19143677
v -2.64800429 12.73929501 -332.19143677
v -2.64800429 7.57929564 -332.19143677
v -2.84984541 12.73929501 -332.35076904
v -2.84984541 7.57929564 -332.35076904
v -2.84984541 12.73929501 -332.35076904
v -2.84984541 7.57929564 -332.35076904
v -3.08564711 12.73929501 -332.45336914
v -3.08564711 7.57929564 -332.45336914
v -3.08564711 12.73929501 -332.45336914
v -3.08564711 7.57929564 -332.45336914
v -3.33981633 12.73929501 -332.49243164
v -3.33981633 7.57929564 -332.49243164
v -3.33981633 12.73929501 -332.49243164
v -3.33981633 7.57929564 -332.49243164
v -3.59554505 12.73929501 -332.46539307
v -3.59554505 7.57929564 -332.46539307
v -3.59554505 12.73929501 -332.46539307
v -3.59554505 7.57929564 -332.46539307
v -3.83592248 12.73929501 -332.37402344
v -3.83592248 7.57929564 -332.37402344
v -3.83592248 12.73929501 -332.37402344
v -3.83592248 7.57929564 -332.37402344
v -4.04505301 12.73929501 -332.22439575
v -4.04505301 7.57929564 -332.22439575
v -2.49347115 12.73929501 -331.98590088
v -2.49347115 12.73929501 -331.98590088
v -2.39646506 7.57929564 -331.74774170
v -2.39646506 7.57929564 -331.74774170
v -2.36340094 12.73929501 -331.49270630
v -2.39646506 12.73929501 -331.74774170
v -2.39646506 12.73929501 -331.74774170
v -3.83592248 -13.06070423 -332.37402344
v -3.83592248 -13.06070423 -332.37402344
v -4.04505301 -7.90070438 -332.22439575
v -4.04505301 -7.90070438 -332.22439575
v -4.20910692 -13.06070423 -332.02636719
v -4.04505301 -13.06070423 -332.22439575
v -4.04505301 -13.06070423 -332.22439575
v -3.83592248 2.41929531 -332.37402344
v -3.83592248 2.41929531 -332.37402344
v -3.59554505 2.41929531 -332.46539307
v -3.59554505 2.41929531 -332.46539307
v -3.33981633 2.41929531 -332.49243164
v -3.33981633 2.41929531 -332.49243164
v -3.08564711 2.41929531 -332.45336914
v -3.08564711 2.41929531 -332.45336914
v -2.84984541 2.41929531 -332.35076904
v -2.84984541 2.41929531 -332.35076904
v -2.64800429 2.41929531 -332.19143677
v -2.64800429 2.41929531 -332.19143677
v -3.59554505 -2.74070454 -332.46539307
v -3.59554505 -2.74070454 -332.46539307
v -3.33981633 -2.74070454 -332.49243164
v -3.33981633 -2.74070454 -332.49243164
v -3.08564711 -2.74070454 -332.45336914
v -3.08564711 -2.74070454 -332.45336914
v -2.84984541 -2.74070454 -332.35076904
v -2.84984541 -2.74070454 -332.35076904
v -2.64800429 -2.74070454 -332.19143677
v -2.64800429 -2.74070454 -332.19143677
v -2.49347115 -2.74070454 -331.98590088
v -2.49347115 -2.74070454 -331.98590088
v 31.70372772 -26.46816254 0.00000000
v -26.46816254 31.70372772 0.00000000
v 29.20351028 -29.20351028 0.00000000
v -29.20351028 29.20351028 0.00000000
v 26.46816254 -31.70372772 -0.00000000
v -31.70372772 26.46816254 0.00000000
v 23.51970863 -33.94868469 -0.00000000
v -33.94868469 23.51970863 0.00000000
v 20.38188934 -35.92030716 -0.00000000
v -35.92030716 20.38188934 0.00000000
v 17.07996559 -37.60272217 -0.00000000
v -37.60272217 17.07996559 0.00000000
v 13.64052486 -38.98237991 -0.00000000
v -38.98237991 13.64052486 0.00000000
v 10.09125900 -40.04817581 -0.00000000
v -40.04817581 10.09125900 0.00000000
v 6.46074343 -40.79152679 -0.00000000
v -40.79152679 6.46074343 0.00000000
v 2.77820992 -41.20645142 -0.00000000
v -41.20645142 2.77820992 0.00000000
v -0.92669207 -41.28960037 0.00000000
v -41.28960037 -0.92669207 0.00000000
v -4.62413263 -41.04031372 0.00000000
v -41.04031372 -4.62413263 0.00000000
v -8.28434277 -40.46059418 0.00000000
v -40.46059418 -8.28434277 0.00000000
v -11.87785244 -39.55510712 0.00000000
v -39.55510712 -11.87785244 0.00000000
v -15.37572765 -38.33115005 0.00000000
v -38.33115005 -15.37572765 0.00000000
v -18.74980736 -36.79856873 0.00000000
v -36.79856873 -18.74980736 0.00000000
v -21.97292519 -34.96971130 0.00000000
v -34.96971130 -21.97292519 0.00000000
v -25.01912880 -32.85929489 0.00000000
v -32.85929489 -25.01912880 0.00000000
v -27.86389351 -30.48431396 0.00000000
v -30.48431396 -27.86389351 0.00000000
v -23.51970863 33.94868469 0.00000000
v 33.94868469 -23.51970863 0.00000000
v -20.38188934 35.92030716 0.00000000
v 35.92030716 -20.38188934 0.00000000
v -17.07996559 37.60272217 0.00000000
v 37.60272217 -17.07996559 0.00000000
v -13.64052486 38.98237991 0.00000000
v 38.98237991 -13.64052486 0.00000000
v -10.09125900 40.04817581 0.00000000
v 40.04817581 -10.09125900 0.00000000
v -6.46074343 40.79152679 0.00000000
v 40.79152679 -6.46074343 0.00000000
v -2.77820992 41.20645142 0.00000000
v 41.20645142 -2.77820992 0.00000000
v 0.92669207 41.28960037 0.00000000
v 41.28960037 0.92669207 -0.00000000
v 4.62413263 41.04031372 -0.00000000
v 41.04031372 4.62413263 0.00000000
v 8.28434277 40.46059418 -0.00000000
v 40.46059418 8.28434277 0.00000000
v 11.87785244 39.55510712 -0.00000000
v 39.55510712 11.87785244 0.00000000
v 15.37572765 38.33115005 -0.00000000
v 38.33115005 15.37572765 0.00000000
v 18.74980736 36.79856873 -0.00000000
v 36.79856873 18.74980736 0.00000000
v 21.97292519 34.96971130 -0.00000000
v 34.96971130 21.97292519 0.00000000
v 25.01912880 32.85929489 -0.00000000
v 32.85929489 25.01912880 0.00000000
v 27.86389351 30.48431396 0.00000000
v 30.48431396 27.86389351 0.00000000
v -35.05195236 -21.84148979 -157.27999878
v -36.79856873 -18.74980736 -78.63999939
v -36.83840942 -18.67141151 -157.27999878
v -36.83840942 -18.67141151 -157.27999878
v -36.79856873 -18.74980736 -78.63999939
v -38.32761765 -15.38453197 -78.63999939
v -38.32408142 -15.39333439 -157.27999878
v -38.32408142 -15.39333439 -157.27999878
v -38.32761765 -15.38453197 -78.63999939
v -39.51872253 -11.99835968 -157.27999878
v -39.55510712 -11.87785244 -78.63999939
v -39.51872253 -11.99835968 -157.27999878
v -39.55510712 -11.87785244 -78.63999939
v -40.41325760 -8.51226997 -157.27999878
v -40.41325760 -8.51226997 -157.27999878
v -39.55510712 -11.87785244 -78.63999939
v -40.46059418 -8.28434277 -78.63999939
v -40.41325760 -8.51226997 -157.27999878
v -40.46059418 -8.28434277 -78.63999939
v -41.00089264 -4.96153784 -157.27999878
v -41.04031372 -4.62413263 -78.63999939
v -41.00089264 -4.96153784 -157.27999878
v -41.04031372 -4.62413263 -78.63999939
v -41.27716827 -1.37312734 -157.27999878
v -41.27716827 -1.37312734 -157.27999878
v -41.04031372 -4.62413263 -78.63999939
v -41.28960037 -0.92669207 -78.63999939
v -41.27716827 -1.37312734 -157.27999878
v -41.28960037 -0.92669207 -78.63999939
v -41.23998260 2.22571039 -157.27999878
v -41.23998260 2.22571039 -157.27999878
v -41.28960037 -0.92669207 -78.63999939
v -41.20645142 2.77820992 -78.63999939
v -41.23998260 2.22571039 -157.27999878
v -41.20645142 2.77820992 -78.63999939
v -40.88962173 5.80764627 -157.27999878
v -40.88962173 5.80764627 -157.27999878
v -41.20645142 2.77820992 -78.63999939
v -40.79152679 6.46074343 -78.63999939
v -40.88962173 5.80764627 -157.27999878
v -40.79152679 6.46074343 -78.63999939
v -40.22874451 9.34547901 -157.27999878
v -40.22874451 9.34547901 -157.27999878
v -40.79152679 6.46074343 -78.63999939
v -40.04817581 10.09125900 -78.63999939
v -40.22874451 9.34547901 -157.27999878
v -40.04817581 10.09125900 -78.63999939
v -39.26237106 12.81234169 -157.27999878
v -39.26237106 12.81234169 -157.27999878
v -40.04817581 10.09125900 -78.63999939
v -38.98237991 13.64052486 -78.63999939
v -39.26237106 12.81234169 -157.27999878
v -38.98237991 13.64052486 -78.63999939
v -37.99784088 16.18190765 -157.27999878
v -37.99784088 16.18190765 -157.27999878
v -38.98237991 13.64052486 -78.63999939
v -37.60272217 17.07996559 -78.63999939
v -37.99784088 16.18190765 -157.27999878
v -37.60272217 17.07996559 -78.63999939
v -36.44475174 19.42858696 -157.27999878
v -36.44475174 19.42858696 -157.27999878
v -37.60272217 17.07996559 -78.63999939
v -35.92030716 20.38188934 -78.63999939
v -36.44475174 19.42858696 -157.27999878
v -35.92030716 20.38188934 -78.63999939
v -34.54910660 22.62850189 -157.27999878
v -34.54910660 22.62850189 -157.27999878
v -35.92030716 20.38188934 -78.63999939
v -33.94868469 23.51970863 -78.63999939
v -34.54910660 22.62850189 -157.27999878
v -33.94868469 23.51970863 -78.63999939
v -32.37327576 25.64490318 -157.27999878
v -32.37327576 25.64490318 -157.27999878
v -33.94868469 23.51970863 -78.63999939
v -31.70372772 26.46816254 -78.63999939
v -32.37327576 25.64490318 -157.27999878
v -31.70372772 26.46816254 -78.63999939
v -29.93490028 28.45332527 -157.27999878
v -29.93490028 28.45332527 -157.27999878
v -31.70372772 26.46816254 -78.63999939
v -29.20351028 29.20351028 -78.63999939
v -29.93490028 28.45332527 -157.27999878
v -29.20351028 29.20351028 -78.63999939
v -27.25375748 31.03099632 -157.27999878
v -27.25375748 31.03099632 -157.27999878
v -29.20351028 29.20351028 -78.63999939
v -26.46816254 31.70372772 -78.63999939
v -27.25375748 31.03099632 -157.27999878
v -26.46816254 31.70372772 -78.63999939
v -24.35158920 33.35700989 -157.27999878
v -24.35158920 33.35700989 -157.27999878
v -26.46816254 31.70372772 -78.63999939
v -23.51970863 33.94868469 -78.63999939
v -24.35158920 33.35700989 -157.27999878
v -23.51970863 33.94868469 -78.63999939
v -21.25193214 35.41250229 -157.27999878
v -21.25193214 35.41250229 -157.27999878
v -23.51970863 33.94868469 -78.63999939
v -20.38188934 35.92030716 -78.63999939
v -21.25193214 35.41250229 -157.27999878
v -20.38188934 35.92030716 -78.63999939
v -17.97992706 37.18080521 -157.27999878
v -17.97992706 37.18080521 -157.27999878
v -20.38188934 35.92030716 -78.63999939
v -17.07996559 37.60272217 -78.63999939
v -17.97992706 37.18080521 -157.27999878
v -17.07996559 37.60272217 -78.63999939
v -14.56210613 38.64757538 -157.27999878
v -14.56210613 38.64757538 -157.27999878
v -17.07996559 37.60272217 -78.63999939
v -13.64052486 38.98237991 -78.63999939
v -14.56210613 38.64757538 -157.27999878
v -13.64052486 38.98237991 -78.63999939
v -11.02618790 39.80091858 -157.27999878
v -11.02618790 39.80091858 -157.27999878
v -13.64052486 38.98237991 -78.63999939
v -10.09125900 40.04817581 -78.63999939
v -11.02618790 39.80091858 -157.27999878
v -10.09125900 40.04817581 -78.63999939
v -7.40084934 40.63148499 -157.27999878
v -7.40084934 40.63148499 -157.27999878
v -10.09125900 40.04817581 -78.63999939
v -6.46074343 40.79152679 -78.63999939
v -7.40084934 40.63148499 -157.27999878
v -6.46074343 40.79152679 -78.63999939
v -3.71549082 41.13253021 -157.27999878
v -3.71549082 41.13253021 -157.27999878
v -6.46074343 40.79152679 -78.63999939
v -2.77820992 41.20645142 -78.63999939
v -3.71549082 41.13253021 -157.27999878
v -2.77820992 41.20645142 -78.63999939
v -0.00000000 41.29999924 -157.27999878
v -0.00000000 41.29999924 -157.27999878
v -2.77820992 41.20645142 -78.63999939
v 0.92669207 41.28960037 -78.63999939
v -0.00000000 41.29999924 -157.27999878
v 0.92669207 41.28960037 -78.63999939
v 3.71549082 41.13253021 -157.27999878
v 3.71549082 41.13253021 -157.27999878
v 0.92669207 41.28960037 -78.63999939
v 4.62413263 41.04031372 -78.63999939
v 3.71549082 41.13253021 -157.27999878
v 4.62413263 41.04031372 -78.63999939
v 7.40084934 40.63148499 -157.27999878
v 7.40084934 40.63148499 -157.27999878
v 4.62413263 41.04031372 -78.63999939
v 8.28434277 40.46059418 -78.63999939
v 7.40084934 40.63148499 -157.27999878
v 8.28434277 40.46059418 -78.63999939
v 11.02618790 39.80091858 -157.27999878
v 11.02618790 39.80091858 -157.27999878
v 8.28434277 40.46059418 -78.63999939
v 11.87785244 39.55510712 -78.63999939
v 11.02618790 39.80091858 -157.27999878
v 11.87785244 39.55510712 -78.63999939
v 14.56210613 38.64757538 -157.27999878
v 14.56210613 38.64757538 -157.27999878
v 11.87785244 39.55510712 -78.63999939
v 15.37572765 38.33115005 -78.63999939
v 14.56210613 38.64757538 -157.27999878
v 15.37572765 38.33115005 -78.63999939
v 17.97992706 37.18080521 -157.27999878
v 17.97992706 37.18080521 -157.27999878
v 15.37572765 38.33115005 -78.63999939
v 18.74980736 36.79856873 -78.63999939
v 17.97992706 37.18080521 -157.27999878
v 18.74980736 36.79856873 -78.63999939
v 21.25193214 35.41250229 -157.27999878
v 21.25193214 35.41250229 -157.27999878
v 18.74980736 36.79856873 -78.63999939
v 21.97292519 34.96971130 -78.63999939
v 21.25193214 35.41250229 -157.27999878
v 21.97292519 34.96971130 -78.63999939
v 24.35158920 33.35700989 -157.27999878
v 24.35158920 33.35700989 -157.27999878
v 21.97292519 34.96971130 -78.63999939
v 25.01912880 32.85929489 -78.63999939
v 24.35158920 33.35700989 -157.27999878
v 25.01912880 32.85929489 -78.63999939
v 27.25375748 31.03099632 -157.27999878
v 27.25375748 31.03099632 -157.27999878
v 25.01912880 32.85929489 -78.63999939
v 27.86389351 30.48431396 -78.63999939
v 27.25375748 31.03099632 -157.27999878
v 27.86389351 30.48431396 -78.63999939
v 29.93490028 28.45332527 -157.27999878
v 29.93490028 28.45332527 -157.27999878
v 27.86389351 30.48431396 -78.63999939
v 30.48431396 27.86389351 -78.63999939
v 29.93490028 28.45332527 -157.27999878
v 30.48431396 27.86389351 -78.63999939
v 32.37327576 25.64490318 -157.27999878
v 32.37327576 25.64490318 -157.27999878
v 30.48431396 27.86389351 -78.63999939
v 32.85929489 25.01912880 -78.63999939
v 32.37327576 25.64490318 -157.27999878
v 32.85929489 25.01912880 -78.63999939
v 34.54910660 22.62850189 -157.27999878
v 34.54910660 22.62850189 -157.27999878
v 32.85929489 25.01912880 -78.63999939
v 34.96971130 21.97292519 -78.63999939
v 34.54910660 22.62850189 -157.27999878
v 34.96971130 21.97292519 -78.63999939
v 36.44475174 19.42858696 -157.27999878
v 36.44475174 19.42858696 -157.27999878
v 34.96971130 21.97292519 -78.63999939
v 36.79856873 18.74980736 -78.63999939
v 36.44475174 19.42858696 -157.27999878
v 36.79856873 18.74980736 -78.63999939
v 37.99784088 16.18190765 -157.27999878
v 37.99784088 16.18190765 -157.27999878
v 36.79856873 18.74980736 -78.63999939
v 38.33115005 15.37572765 -78.63999939
v 37.99784088 16.18190765 -157.27999878
v 38.33115005 15.37572765 -78.63999939
v 39.26237106 12.81234169 -157.27999878
v 39.26237106 12.81234169 -157.27999878
v 38.33115005 15.37572765 -78.63999939
v 39.55510712 11.87785244 -78.63999939
v 39.26237106 12.81234169 -157.27999878
v 39.55510712 11.87785244 -78.63999939
v 40.22874451 9.34547901 -157.27999878
v 40.22874451 9.34547901 -157.27999878
v 39.55510712 11.87785244 -78.63999939
v 40.46059418 8.28434277 -78.63999939
v 40.22874451 9.34547901 -157.27999878
v 40.46059418 8.28434277 -78.63999939
v 40.88962173 5.80764627 -157.27999878
v 40.88962173 5.80764627 -157.27999878
v 40.46059418 8.28434277 -78.63999939
v 41.04031372 4.62413263 -78.63999939
v 40.88962173 5.80764627 -157.27999878
v 41.04031372 4.62413263 -78.63999939
v 41.23998260 2.22571039 -157.27999878
v 41.23998260 2.22571039 -157.27999878
v 41.04031372 4.62413263 -78.63999939
v 41.28960037 0.92669207 -78.63999939
v 41.23998260 2.22571039 -157.27999878
v 41.28960037 0.92669207 -78.63999939
v 41.27716827 -1.37312734 -157.27999878
v 41.27716827 -1.37312734 -157.27999878
v 41.28960037 0.92669207 -78.63999939
v 41.20645142 -2.77820992 -78.63999939
v 41.27716827 -1.37312734 -157.27999878
v 41.20645142 -2.77820992 -78.63999939
v 41.00089264 -4.96153784 -157.27999878
v 41.00089264 -4.96153784 -157.27999878
v 41.20645142 -2.77820992 -78.63999939
v 40.79152679 -6.46074343 -78.63999939
v 41.00089264 -4.96153784 -157.27999878
v 40.79152679 -6.46074343 -78.63999939
v 40.41325760 -8.51226997 -157.27999878
v 40.41325760 -8.51226997 -157.27999878
v 40.79152679 -6.46074343 -78.63999939
v 40.04817581 -10.09125900 -78.63999939
v 40.41325760 -8.51226997 -157.27999878
v 40.04817581 -10.09125900 -78.63999939
v 39.51872253 -11.99835968 -157.27999878
v 39.51872253 -11.99835968 -157.27999878
v 40.04817581 -10.09125900 -78.63999939
v 38.98237991 -13.64052486 -78.63999939
v 39.51872253 -11.99835968 -157.27999878
v 38.98237991 -13.64052486 -78.63999939
v 38.32408142 -15.39333439 -157.27999878
v 38.32408142 -15.39333439 -157.27999878
v 38.98237991 -13.64052486 -78.63999939
v 37.60272217 -17.07996559 -78.63999939
v 38.32408142 -15.39333439 -157.27999878
v 37.60272217 -17.07996559 -78.63999939
v 36.83840942 -18.67141151 -157.27999878
v 36.83840942 -18.67141151 -157.27999878
v 37.60272217 -17.07996559 -78.63999939
v 35.92030716 -20.38188934 -78.63999939
v 36.83840942 -18.67141151 -157.27999878
v 35.92030716 -20.38188934 -78.63999939
v 35.05195236 -21.84148979 -157.27999878
v 35.05195236 -21.84148979 -157.27999878
v 35.92030716 -20.38188934 -78.63999939
v 33.94868469 -23.51970863 -78.63999939
v 35.05195236 -21.84148979 -157.27999878
v 33.94868469 -23.51970863 -78.63999939
v 32.99339294 -24.84201813 -157.27999878
v 32.99339294 -24.84201813 -157.27999878
v 33.94868469 -23.51970863 -78.63999939
v 31.70372772 -26.46816254 -78.63999939
v 32.99339294 -24.84201813 -157.27999878
v 31.70372772 -26.46816254 -78.63999939
v 30.67871857 -27.64970589 -157.27999878
v 30.67871857 -27.64970589 -157.27999878
v 31.70372772 -26.46816254 -78.63999939
v 29.20351028 -29.20351028 -78.63999939
v 30.67871857 -27.64970589 -157.27999878
v 29.20351028 -29.20351028 -78.63999939
v 28.12589264 -30.24275398 -157.27999878
v 28.12589264 -30.24275398 -157.27999878
v 29.20351028 -29.20351028 -78.63999939
v 26.46816254 -31.70372772 -78.63999939
v 28.12589264 -30.24275398 -157.27999878
v 26.46816254 -31.70372772 -78.63999939
v 25.35473061 -32.60103607 -157.27999878
v 25.35473061 -32.60103607 -157.27999878
v 26.46816254 -31.70372772 -78.63999939
v 23.51970863 -33.94868469 -78.63999939
v 25.35473061 -32.60103607 -157.27999878
v 23.51970863 -33.94868469 -78.63999939
v 22.38674927 -34.70624542 -157.27999878
v 22.38674927 -34.70624542 -157.27999878
v 23.51970863 -33.94868469 -78.63999939
v 20.38188934 -35.92030716 -78.63999939
v 22.38674927 -34.70624542 -157.27999878
v 20.38188934 -35.92030716 -78.63999939
v 19.24498367 -36.54203796 -157.27999878
v 19.24498367 -36.54203796 -157.27999878
v 20.38188934 -35.92030716 -78.63999939
v 17.07996559 -37.60272217 -78.63999939
v 19.24498367 -36.54203796 -157.27999878
v 17.07996559 -37.60272217 -78.63999939
v 15.95382404 -38.09416580 -157.27999878
v 15.95382404 -38.09416580 -157.27999878
v 17.07996559 -37.60272217 -78.63999939
v 13.64052486 -38.98237991 -78.63999939
v 15.95382404 -38.09416580 -157.27999878
v 13.64052486 -38.98237991 -78.63999939
v 12.53881931 -39.35057831 -157.27999878
v 12.53881931 -39.35057831 -157.27999878
v 13.64052486 -38.98237991 -78.63999939
v 10.09125900 -40.04817581 -78.63999939
v 12.53881931 -39.35057831 -157.27999878
v 10.09125900 -40.04817581 -78.63999939
v 9.02647877 -40.30152130 -157.27999878
v 9.02647877 -40.30152130 -157.27999878
v 10.09125900 -40.04817581 -78.63999939
v 6.46074343 -40.79152679 -78.63999939
v 9.02647877 -40.30152130 -157.27999878
v 6.46074343 -40.79152679 -78.63999939
v 5.44406843 -40.93961716 -157.27999878
v 5.44406843 -40.93961716 -157.27999878
v 6.46074343 -40.79152679 -78.63999939
v 2.77820992 -41.20645142 -78.63999939
v 5.44406843 -40.93961716 -157.27999878
v 2.77820992 -41.20645142 -78.63999939
v 1.81939733 -41.25990677 -157.27999878
v 1.81939733 -41.25990677 -157.27999878
v 2.77820992 -41.20645142 -78.63999939
v -0.92669207 -41.28960037 -78.63999939
v 1.81939733 -41.25990677 -157.27999878
v -0.92669207 -41.28960037 -78.63999939
v -1.81939733 -41.25990677 -157.27999878
v -1.81939733 -41.25990677 -157.27999878
v -0.92669207 -41.28960037 -78.63999939
v -4.62413263 -41.04031372 -78.63999939
v -1.81939733 -41.25990677 -157.27999878
v -4.62413263 -41.04031372 -78.63999939
v -5.44406843 -40.93961716 -157.27999878
v -5.44406843 -40.93961716 -157.27999878
v -4.62413263 -41.04031372 -78.63999939
v -8.28434277 -40.46059418 -78.63999939
v -5.44406843 -40.93961716 -157.27999878
v -8.28434277 -40.46059418 -78.63999939
v -9.02647877 -40.30152130 -157.27999878
v -9.02647877 -40.30152130 -157.27999878
v -8.28434277 -40.46059418 -78.63999939
v -11.87785244 -39.55510712 -78.63999939
v -9.02647877 -40.30152130 -157.27999878
v -11.87785244 -39.55510712 -78.63999939
v -12.53881931 -39.35057831 -157.27999878
v -12.53881931 -39.35057831 -157.27999878
v -11.87785244 -39.55510712 -78.63999939
v -15.37572765 -38.33115005 -78.63999939
v -12.53881931 -39.35057831 -157.27999878
v -15.37572765 -38.33115005 -78.63999939
v -15.95382404 -38.09416580 -157.27999878
v -15.95382404 -38.09416580 -157.27999878
v -15.37572765 -38.33115005 -78.63999939
v -18.74980736 -36.79856873 -78.63999939
v -15.95382404 -38.09416580 -157.27999878
v -18.74980736 -36.79856873 -78.63999939
v -19.24498367 -36.54203796 -157.27999878
v -19.24498367 -36.54203796 -157.27999878
v -18.74980736 -36.79856873 -78.63999939
v -21.97292519 -34.96971130 -78.63999939
v -19.24498367 -36.54203796 -157.27999878
v -21.97292519 -34.96971130 -78.63999939
v -22.38674927 -34.70624542 -157.27999878
v -22.38674927 -34.70624542 -157.27999878
v -21.97292519 -34.96971130 -78.63999939
v -25.01912880 -32.85929489 -78.63999939
v -22.38674927 -34.70624542 -157.27999878
v -25.01912880 -32.85929489 -78.63999939
v -25.35473061 -32.60103607 -157.27999878
v -25.35473061 -32.60103607 -157.27999878
v -25.01912880 -32.85929489 -78.63999939
v -27.86389351 -30.48431396 -78.63999939
v -25.35473061 -32.60103607 -157.27999878
v -27.86389351 -30.48431396 -78.63999939
v -28.12589264 -30.24275398 -157.27999878
v -28.12589264 -30.24275398 -157.27999878
v -27.86389351 -30.48431396 -78.63999939
v -30.48431396 -27.86389351 -78.63999939
v -28.12589264 -30.24275398 -157.27999878
v -30.48431396 -27.86389351 -78.63999939
v -30.67871857 -27.64970589 -157.27999878
v -30.67871857 -27.64970589 -157.27999878
v -30.48431396 -27.86389351 -78.63999939
v -32.85929489 -25.01912880 -78.63999939
v -32.99339294 -24.84201813 -157.27999878
v -32.99339294 -24.84201813 -157.27999878
v -32.85929489 -25.01912880 -78.63999939
v -34.96971130 -21.97292519 -78.63999939
v -35.05195236 -21.84148979 -157.27999878
v -34.96971130 -21.97292519 -78.63999939
v 26.46816254 -31.70372772 -0.00000000
v 29.20351028 -29.20351028 0.00000000
v 29.20351028 -29.20351028 0.00000000
v 31.70372772 -26.46816254 0.00000000
v 31.70372772 -26.46816254 0.00000000
v 33.94868469 -23.51970863 0.00000000
v 33.94868469 -23.51970863 0.00000000
v 35.92030716 -20.38188934 0.00000000
v 35.92030716 -20.38188934 0.00000000
v 37.60272217 -17.07996559 0.00000000
v 37.60272217 -17.07996559 0.00000000
v 38.98237991 -13.64052486 0.00000000
v 38.98237991 -13.64052486 0.00000000
v 40.04817581 -10.09125900 0.00000000
v 40.04817581 -10.09125900 0.00000000
v 40.79152679 -6.46074343 0.00000000
v 40.79152679 -6.46074343 0.00000000
v 41.20645142 -2.77820992 0.00000000
v 41.20645142 -2.77820992 0.00000000
v 41.28960037 0.92669207 -0.00000000
v 41.28960037 0.92669207 -0.00000000
v 41.04031372 4.62413263 0.00000000
v 41.04031372 4.62413263 0.00000000
v 40.46059418 8.28434277 0.00000000
v 40.46059418 8.28434277 0.00000000
v 39.55510712 11.87785244 0.00000000
v 39.55510712 11.87785244 0.00000000
v 38.33115005 15.37572765 0.00000000
v 38.33115005 15.37572765 0.00000000
v 36.79856873 18.74980736 0.00000000
v 36.79856873 18.74980736 0.00000000
v 34.96971130 21.97292519 0.00000000
v 34.96971130 21.97292519 0.00000000
v 32.85929489 25.01912880 0.00000000
v 32.85929489 25.01912880 0.00000000
v 30.48431396 27.86389351 0.00000000
v 30.48431396 27.86389351 0.00000000
v 27.86389351 30.48431396 0.00000000
v 27.86389351 30.48431396 0.00000000
v 25.01912880 32.85929489 -0.00000000
v 25.01912880 32.85929489 -0.00000000
v 21.97292519 34.96971130 -0.00000000
v 21.97292519 34.96971130 -0.00000000
v 18.74980736 36.79856873 -0.00000000
v 18.74980736 36.79856873 -0.00000000
v 15.37572765 38.33115005 -0.00000000
v 15.37572765 38.33115005 -0.00000000
v 11.87785244 39.55510712 -0.00000000
v 11.87785244 39.55510712 -0.00000000
v 8.28434277 40.46059418 -0.00000000
v 8.28434277 40.46059418 -0.00000000
v 4.62413263 41.04031372 -0.00000000
v 4.62413263 41.04031372 -0.00000000
v 0.92669207 41.28960037 0.00000000
v 0.92669207 41.28960037 0.00000000
v -2.77820992 41.20645142 0.00000000
v -2.77820992 41.20645142 0.00000000
v -6.46074343 40.79152679 0.00000000
v -6.46074343 40.79152679 0.00000000
v -10.09125900 40.04817581 0.00000000
v -10.09125900 40.04817581 0.00000000
v -13.64052486 38.98237991 0.00000000
v -13.64052486 38.98237991 0.00000000
v -17.07996559 37.60272217 0.00000000
v -17.07996559 37.60272217 0.00000000
v -20.38188934 35.92030716 0.00000000
v -20.38188934 35.92030716 0.00000000
v -23.51970863 33.94868469 0.00000000
v -23.51970863 33.94868469 0.00000000
v -26.46816254 31.70372772 0.00000000
v -26.46816254 31.70372772 0.00000000
v -29.20351028 29.20351028 0.00000000
v -29.20351028 29.20351028 0.00000000
v -31.70372772 26.46816254 0.00000000
v -31.70372772 26.46816254 0.00000000
v -33.94868469 23.51970863 0.00000000
v -33.94868469 23.51970863 0.00000000
v -35.92030716 20.38188934 0.00000000
v -35.92030716 20.38188934 0.00000000
v -37.60272217 17.07996559 0.00000000
v -37.60272217 17.07996559 0.00000000
v -38.98237991 13.64052486 0.00000000
v -38.98237991 13.64052486 0.00000000
v -40.04817581 10.09125900 0.00000000
v -40.04817581 10.09125900 0.00000000
v -40.79152679 6.46074343 0.00000000
v -40.79152679 6.46074343 0.00000000
v -41.20645142 2.77820992 0.00000000
v -41.20645142 2.77820992 0.00000000
v -41.28960037 -0.92669207 0.00000000
v -41.28960037 -0.92669207 0.00000000
v -41.04031372 -4.62413263 0.00000000
v -41.04031372 -4.62413263 0.00000000
v -40.46059418 -8.28434277 0.00000000
v -40.46059418 -8.28434277 0.00000000
v -39.55510712 -11.87785244 0.00000000
v -39.55510712 -11.87785244 0.00000000
v -38.33115005 -15.37572765 0.00000000
v -38.33115005 -15.37572765 0.00000000
v -36.79856873 -18.74980736 0.00000000
v -36.79856873 -18.74980736 0.00000000
v -34.96971130 -21.97292519 0.00000000
v -34.96971130 -21.97292519 0.00000000
v -32.85929489 -25.01912880 0.00000000
v -32.85929489 -25.01912880 0.00000000
v -30.48431396 -27.86389351 0.00000000
v -30.48431396 -27.86389351 0.00000000
v -27.86389351 -30.48431396 0.00000000
v -27.86389351 -30.48431396 0.00000000
v -25.01912880 -32.85929489 0.00000000
v -25.01912880 -32.85929489 0.00000000
v -21.97292519 -34.96971130 0.00000000
v -21.97292519 -34.96971130 0.00000000
v -18.74980736 -36.79856873 0.00000000
v -18.74980736 -36.79856873 0.00000000
v -15.37572765 -38.33115005 0.00000000
v -15.37572765 -38.33115005 0.00000000
v -11.87785244 -39.55510712 0.00000000
v -11.87785244 -39.55510712 0.00000000
v -8.28434277 -40.46059418 0.00000000
v -8.28434277 -40.46059418 0.00000000
v -4.62413263 -41.04031372 0.00000000
v -4.62413263 -41.04031372 0.00000000
v -0.92669207 -41.28960037 0.00000000
v -0.92669207 -41.28960037 0.00000000
v 2.77820992 -41.20645142 -0.00000000
v 2.77820992 -41.20645142 -0.00000000
v 6.46074343 -40.79152679 -0.00000000
v 6.46074343 -40.79152679 -0.00000000
v 10.09125900 -40.04817581 -0.00000000
v 10.09125900 -40.04817581 -0.00000000
v 13.64052486 -38.98237991 -0.00000000
v 13.64052486 -38.98237991 -0.00000000
v 17.07996559 -37.60272217 -0.00000000
v 17.07996559 -37.60272217 -0.00000000
v 20.38188934 -35.92030716 -0.00000000
v 20.38188934 -35.92030716 -0.00000000
v 23.51970863 -33.94868469 -0.00000000
v 23.51970863 -33.94868469 -0.00000000
v 26.46816254 -31.70372772 -0.00000000
f 1 2 3
f 1 3 4
f 4 5 1
f 1 5 6
f 1 6 7
f 7 8 1
f 1 8 9
f 1 9 10
f 10 11 1
f 1 11 12
f 1 12 13
f 13 14 1
f 1 14 15
f 1 15 16
f 16 17 1
f 1 17 18
f 1 18 19
f 1 19 20
f 20 19 21
f 20 21 22
f 22 21 23
f 22 23 24
f 25 26 27
f 27 26 28
f 28 26 29
f 29 26 30
f 30 26 31
f 31 26 32
f 32 26 33
f 33 26 34
f 34 26 35
f 35 26 36
f 36 26 37
f 37 26 38
f 38 26 39
f 39 26 40
f 40 26 41
f 41 26 42
f 42 26 43
f 43 26 44
f 44 26 45
f 45 26 46
f 46 26 47
f 47 26 48
f 48 26 49
f 49 26 50
f 51 52 53
f 53 52 54
f 53 54 55
f 55 56 53
f 53 56 57
f 53 57 58
f 53 58 59
f 59 58 60
f 59 60 61
f 61 62 59
f 59 62 63
f 59 63 64
f 65 66 67
f 67 66 68
f 67 68 69
f 69 70 67
f 67 70 71
f 67 71 72
f 72 71 73
f 72 73 74
f 74 75 72
f 72 75 76
f 72 76 77
f 77 78 72
f 79 80 81
f 81 80 82
f 81 82 83
f 84 85 79
f 79 85 86
f 79 86 87
f 87 88 79
f 79 88 89
f 79 89 90
f 90 91 79
f 79 91 80
f 83 92 81
f 81 92 93
f 81 93 94
f 94 95 81
f 81 95 96
f 81 96 97
f 97 98 81
f 81 98 99
f 100 101 102
f 102 101 103
f 102 103 104
f 105 106 100
f 100 106 107
f 100 107 108
f 108 109 100
f 100 109 110
f 100 110 111
f 111 112 100
f 100 112 113
f 100 113 114
f 114 101 100
f 104 115 102
f 102 115 116
f 102 116 117
f 117 118 102
f 102 118 119
f 102 119 120
f 121 122 123
f 123 122 124
f 123 124 125
f 126 127 121
f 121 127 128
f 121 128 129
f 129 130 121
f 121 130 131
f 121 131 132
f 132 133 121
f 121 133 122
f 125 134 123
f 123 134 135
f 123 135 136
f 136 137 123
f 123 137 138
f 123 138 139
f 139 140 123
f 123 140 141
f 142 143 144
f 144 143 145
f 144 145 146
f 146 147 144
f 144 147 148
f 144 148 149
f 150 151 152
f 152 151 153
f 152 153 154
f 154 155 152
f 152 155 156
f 152 156 157
f 158 159 160
f 160 159 161
f 160 161 162
f 162 163 160
f 160 163 164
f 160 164 165
f 166 167 168
f 168 167 169
f 170 171 172
f 172 171 173
f 172 173 174
f 174 175 172
f 176 177 172
f 172 177 170
f 178 179 180
f 180 179 181
f 182 183 184
f 184 183 185
f 184 185 186
f 186 185 187
f 186 187 188
f 188 187 189
f 189 187 190
f 189 190 191
f 182 192 183
f 183 192 188
f 188 192 193
f 188 193 194
f 194 186 188
f 195 196 197
f 197 196 189
f 197 189 191
f 195 185 196
f 196 185 183
f 198 199 200
f 200 199 201
f 200 201 202
f 203 204 198
f 198 204 205
f 198 205 206
f 206 207 198
f 198 207 208
f 198 208 209
f 209 210 198
f 198 210 211
f 198 211 212
f 212 199 198
f 202 213 200
f 200 213 214
f 200 214 215
f 215 216 200
f 200 216 217
f 200 217 218
f 219 220 221
f 221 220 222
f 223 224 225
f 225 224 226
f 227 228 229
f 229 228 230
f 230 228 231
f 230 231 232
f 233 234 235
f 235 234 236
f 235 236 237
f 237 236 238
f 239 240 241
f 242 243 244
f 245 246 247
f 248 249 250
f 251 252 253
f 254 255 256
f 257 258 259
f 260 261 240
f 262 263 264
f 265 266 250
f 267 268 269
f 269 268 270
f 271 272 273
f 274 275 276
f 274 276 277
f 278 279 280
f 278 280 281
f 282 283 284
f 282 284 285
f 286 287 288
f 286 288 289
f 290 291 292
f 290 292 293
f 294 295 296
f 294 296 297
f 298 299 300
f 298 300 301
f 302 303 304
f 302 304 305
f 306 307 308
f 308 307 309
f 273 310 271
f 271 310 311
f 311 310 312
f 311 312 313
f 313 312 314
f 315 316 317
f 317 316 318
f 319 320 321
f 322 323 324
f 322 324 325
f 326 327 328
f 326 328 329
f 330 331 332
f 330 332 333
f 334 335 336
f 334 336 337
f 338 339 340
f 338 340 341
f 342 343 344
f 342 344 345
f 346 347 348
f 346 348 349
f 350 351 352
f 350 352 353
f 354 355 356
f 356 355 357
f 321 358 319
f 319 358 359
f 359 358 360
f 359 360 361
f 361 360 362
f 363 364 365
f 365 364 366
f 365 366 367
f 368 369 370
f 368 370 371
f 372 373 374
f 372 374 375
f 376 377 378
f 378 377 379
f 380 381 382
f 382 381 383
f 384 385 386
f 386 385 387
f 388 389 390
f 390 389 391
f 392 393 394
f 394 393 395
f 396 397 398
f 398 397 399
f 400 401 402
f 402 401 403
f 402 403 404
f 405 406 407
f 405 407 408
f 409 410 411
f 409 411 412
f 413 414 415
f 415 414 416
f 417 418 419
f 419 418 420
f 421 422 423
f 423 422 424
f 425 426 427
f 427 426 428
f 429 430 431
f 431 430 432
f 433 434 435
f 435 434 436
f 412 437 409
f 408 438 439
f 408 439 405
f 404 440 441
f 404 441 402
f 438 442 439
f 440 443 441
f 375 444 372
f 371 445 446
f 371 446 368
f 367 447 448
f 367 448 365
f 445 449 446
f 447 450 448
f 369 436 451
f 451 436 434
f 452 432 453
f 453 432 430
f 454 428 455
f 455 428 426
f 456 424 457
f 457 424 422
f 458 420 459
f 459 420 418
f 460 416 461
f 461 416 414
f 462 411 410
f 369 451 370
f 373 452 463
f 373 463 374
f 377 464 379
f 463 452 453
f 464 454 465
f 465 454 455
f 466 456 467
f 467 456 457
f 468 458 469
f 469 458 459
f 470 460 471
f 471 460 461
f 472 462 473
f 473 462 410
f 474 407 406
f 383 381 466
f 465 379 464
f 383 466 467
f 387 385 468
f 387 468 469
f 391 389 470
f 391 470 471
f 395 393 472
f 395 472 473
f 399 397 474
f 399 474 406
f 475 476 477
f 478 479 480
f 481 482 483
f 484 485 486
f 487 488 489
f 490 491 492
f 493 494 495
f 496 497 476
f 498 499 500
f 501 502 486
f 503 504 505
f 505 504 506
f 505 506 507
f 508 509 510
f 508 510 511
f 512 513 514
f 512 514 515
f 516 517 518
f 518 517 519
f 520 521 522
f 522 521 523
f 524 525 526
f 526 525 527
f 528 529 530
f 530 529 531
f 532 533 534
f 534 533 535
f 536 537 538
f 538 537 539
f 540 541 542
f 542 541 543
f 542 543 544
f 545 546 547
f 545 547 548
f 549 550 551
f 549 551 552
f 553 554 555
f 555 554 556
f 557 558 559
f 559 558 560
f 561 562 563
f 563 562 564
f 565 566 567
f 567 566 568
f 569 570 571
f 571 570 572
f 573 574 575
f 575 574 576
f 552 577 549
f 548 578 579
f 548 579 545
f 544 580 581
f 544 581 542
f 578 582 579
f 580 583 581
f 515 584 512
f 511 585 586
f 511 586 508
f 507 587 588
f 507 588 505
f 585 589 586
f 587 590 588
f 509 576 591
f 591 576 574
f 592 572 593
f 593 572 570
f 594 568 595
f 595 568 566
f 596 564 597
f 597 564 562
f 598 560 599
f 599 560 558
f 600 556 601
f 601 556 554
f 602 551 550
f 509 591 510
f 513 592 603
f 513 603 514
f 517 604 519
f 603 592 593
f 604 594 605
f 605 594 595
f 606 596 607
f 607 596 597
f 608 598 609
f 609 598 599
f 610 600 611
f 611 600 601
f 612 602 613
f 613 602 550
f 614 547 546
f 523 521 606
f 605 519 604
f 523 606 607
f 527 525 608
f 527 608 609
f 531 529 610
f 531 610 611
f 535 533 612
f 535 612 613
f 539 537 614
f 539 614 546
f 615 616 617
f 617 616 618
f 617 618 619
f 619 618 620
f 619 620 621
f 621 620 622
f 621 622 623
f 623 622 624
f 623 624 625
f 625 624 626
f 625 626 627
f 627 626 628
f 627 628 629
f 629 628 630
f 629 630 631
f 631 630 632
f 631 632 633
f 633 632 634
f 633 634 635
f 635 634 636
f 635 636 637
f 637 636 638
f 637 638 639
f 639 638 640
f 639 640 641
f 641 640 642
f 641 642 643
f 643 642 644
f 643 644 645
f 645 644 646
f 645 646 647
f 647 646 648
f 647 648 649
f 649 648 650
f 649 650 651
f 651 650 652
f 616 615 653
f 653 615 654
f 653 654 655
f 655 654 656
f 655 656 657
f 657 656 658
f 657 658 659
f 659 658 660
f 659 660 661
f 661 660 662
f 661 662 663
f 663 662 664
f 663 664 665
f 665 664 666
f 665 666 667
f 667 666 668
f 667 668 669
f 669 668 670
f 669 670 671
f 671 670 672
f 671 672 673
f 673 672 674
f 673 674 675
f 675 674 676
f 675 676 677
f 677 676 678
f 677 678 679
f 679 678 680
f 679 680 681
f 681 680 682
f 681 682 683
f 683 682 684
f 685 686 687
f 688 689 690
f 688 690 691
f 692 693 694
f 694 693 695
f 696 697 698
f 699 700 701
f 702 703 704
f 704 703 705
f 706 707 708
f 709 710 711
f 712 713 714
f 715 716 717
f 718 719 720
f 721 722 723
f 724 725 726
f 727 728 729
f 730 731 732
f 733 734 735
f 736 737 738
f 739 740 741
f 742 743 744
f 745 746 747
f 748 749 750
f 751 752 753
f 754 755 756
f 757 758 759
f 760 761 762
f 763 764 765
f 766 767 768
f 769 770 771
f 772 773 774
f 775 776 777
f 778 779 780
f 781 782 783
f 784 785 786
f 787 788 789
f 790 791 792
f 793 794 795
f 796 797 798
f 799 800 801
f 802 803 804
f 805 806 807
f 808 809 810
f 811 812 813
f 814 815 816
f 817 818 819
f 820 821 822
f 823 824 825
f 826 827 828
f 829 830 831
f 832 833 834
f 835 836 837
f 838 839 840
f 841 842 843
f 844 845 846
f 847 848 849
f 850 851 852
f 853 854 855
f 856 857 858
f 859 860 861
f 862 863 864
f 865 866 867
f 868 869 870
f 871 872 873
f 874 875 876
f 877 878 879
f 880 881 882
f 883 884 885
f 886 887 888
f 889 890 891
f 892 893 894
f 895 896 897
f 898 899 900
f 901 902 903
f 904 905 906
f 907 908 909
f 910 911 912
f 913 914 915
f 916 917 918
f 919 920 921
f 922 923 924
f 925 926 927
f 928 929 930
f 931 932 933
f 934 935 936
f 937 938 939
f 940 941 942
f 943 944 945
f 946 947 948
f 949 950 951
f 952 953 954
f 955 956 957
f 958 959 960
f 961 962 963
f 964 965 966
f 967 968 969
f 970 971 972
f 973 974 975
f 976 977 978
f 979 980 981
f 982 983 984
f 985 986 987
f 988 989 990
f 991 992 993
f 994 995 996
f 997 998 999
f 1000 1001 1002
f 1003 1004 1005
f 1006 1007 1008
f 1009 1010 1011
f 1012 1013 1014
f 1015 1016 1017
f 1018 1019 1020
f 1021 1022 1023
f 1024 1025 1026
f 1027 1028 1029
f 1030 1031 1032
f 1033 1034 1035
f 1036 1037 1038
f 1039 1040 1041
f 1042 1043 1044
f 1045 1046 1047
f 1048 1049 1050
f 1051 1052 1053
f 1054 1055 1056
f 1057 1058 1059
f 1060 1061 1062
f 1063 1064 1065
f 1066 1067 1068
f 1069 1070 1071
f 1072 1073 1074
f 1075 1076 1077
f 1078 1079 1080
f 1081 1082 1083
f 1084 1085 1086
f 1087 1088 1089
f 1087 1089 1090
f 1091 1092 1093
f 1091 1093 1094
f 685 1095 686
f 1096 981 1097
f 1097 981 980
f 1098 975 1099
f 1099 975 974
f 1100 969 1101
f 1101 969 968
f 1102 963 1103
f 1103 963 962
f 1104 957 1105
f 1105 957 956
f 1106 951 1107
f 1107 951 950
f 1108 945 1109
f 1109 945 944
f 1110 939 1111
f 1111 939 938
f 1112 933 1113
f 1113 933 932
f 1114 927 1115
f 1115 927 926
f 1116 921 1117
f 1117 921 920
f 1118 915 1119
f 1119 915 914
f 1120 909 1121
f 1121 909 908
f 1122 903 1123
f 1123 903 902
f 1124 897 1125
f 1125 897 896
f 1126 891 1127
f 1127 891 890
f 1128 885 1129
f 1129 885 884
f 1130 879 1131
f 1131 879 878
f 1132 873 1133
f 1133 873 872
f 1134 867 1135
f 1135 867 866
f 1136 861 1137
f 1137 861 860
f 1138 855 1139
f 1139 855 854
f 1140 849 1141
f 1141 849 848
f 1142 843 1143
f 1143 843 842
f 1144 837 1145
f 1145 837 836
f 1146 831 1147
f 1147 831 830
f 1148 825 1149
f 1149 825 824
f 1150 819 1151
f 1151 819 818
f 1152 813 1153
f 1153 813 812
f 1154 807 1155
f 1155 807 806
f 1156 801 1157
f 1157 801 800
f 1158 795 1159
f 1159 795 794
f 1160 789 1161
f 1161 789 788
f 1162 783 1163
f 1163 783 782
f 1164 777 1165
f 1165 777 776
f 1166 771 1167
f 1167 771 770
f 1168 765 1169
f 1169 765 764
f 1170 759 1171
f 1171 759 758
f 1172 753 1173
f 1173 753 752
f 1174 747 1175
f 1175 747 746
f 1176 741 1177
f 1177 741 740
f 1178 735 1179
f 1179 735 734
f 1180 729 1181
f 1181 729 728
f 1182 723 1183
f 1183 723 722
f 1184 717 1185
f 1185 717 716
f 1186 711 1187
f 1187 711 710
f 1188 705 1189
f 1189 705 703
f 1190 701 1191
f 1191 701 700
f 1192 695 1193
f 1193 695 693
f 1194 690 1195
f 1195 690 689
f 1196 686 1197
f 1197 686 1095
f 1198 1093 1199
f 1199 1093 1092
f 1200 1089 1201
f 1201 1089 1088
f 1202 1083 1203
f 1203 1083 1082
f 1204 1077 1205
f 1205 1077 1076
f 1206 1071 1207
f 1207 1071 1070
f 1208 1065 1209
f 1209 1065 1064
f 1210 1059 1211
f 1211 1059 1058
f 1212 1053 1213
f 1213 1053 1052
f 1214 1047 1215
f 1215 1047 1046
f 1216 1041 1217
f 1217 1041 1040
f 1218 1035 1219
f 1219 1035 1034
f 1220 1029 1221
f 1221 1029 1028
f 1222 1023 1223
f 1223 1023 1022
f 1224 1017 1225
f 1225 1017 1016
f 1226 1011 1227
f 1227 1011 1010
f 1228 1005 1229
f 1229 1005 1004
f 1230 999 1231
f 1231 999 998
f 1232 993 1233
f 1233 993 992
f 1234 987 1235
f 1235 987 986

o geometry_45178561_d814_4e10_83a9_18077fb16ba7_1
usemtl material_0
v -36.44475174 19.42858696 -157.27999878
v -34.54910660 22.62850189 -157.27999878
v 36.44475174 19.42858696 -157.27999878
f 1236 1237 1238

